HIERARCHY
ROOT Hips
{
	OFFSET -3.958830 18.904000 13.208200
	CHANNELS 6 Xposition Yposition Zposition Zrotation Yrotation Xrotation 
	JOINT LHipJoint
	{
		OFFSET 0.000000 0.000000 0.000000
		CHANNELS 3 Zrotation Yrotation Xrotation
		JOINT LeftUpLeg
		{
			OFFSET 1.800000 -1.400000 0.085000
			CHANNELS 3 Zrotation Yrotation Xrotation
			JOINT LeftLeg
			{
				OFFSET 2.215000 -6.000000 0.000000
				CHANNELS 3 Zrotation Yrotation Xrotation
				JOINT LeftFoot
				{
					OFFSET 2.500000 -6.900000 0.000000
					CHANNELS 3 Zrotation Yrotation Xrotation
					JOINT LeftToeBase
					{
						OFFSET 0.200000 -0.500000 1.950000
						CHANNELS 3 Zrotation Yrotation Xrotation
						End Site
						{
							OFFSET 0.000000 0.000000 0.000000
						}
					}
				}
			}
		}
	}
	JOINT RHipJoint
	{
		OFFSET 0.000000 0.000000 0.000000
		CHANNELS 3 Zrotation Yrotation Xrotation
		JOINT RightUpLeg
		{
			OFFSET -1.800000 -1.400000 0.085000
			CHANNELS 3 Zrotation Yrotation Xrotation
			JOINT RightLeg
			{
				OFFSET -2.215000 -6.000000 0.000000
				CHANNELS 3 Zrotation Yrotation Xrotation
				JOINT RightFoot
				{
					OFFSET -2.500000 -6.900000 0.000000
					CHANNELS 3 Zrotation Yrotation Xrotation
					JOINT RightToeBase
					{
						OFFSET -0.200000 -0.500000 1.950000
						CHANNELS 3 Zrotation Yrotation Xrotation
						End Site
						{
							OFFSET 0.000000 0.000000 0.000000
						}
					}
				}
			}
		}
	}
	JOINT LowerBack
	{
		OFFSET 0.000000 0.000000 0.000000
		CHANNELS 3 Zrotation Yrotation Xrotation
		JOINT Spine
		{
			OFFSET -0.087000 1.940000 -0.288900
			CHANNELS 3 Zrotation Yrotation Xrotation
			JOINT Spine1
			{
				OFFSET 0.000000 1.950000 0.060000
				CHANNELS 3 Zrotation Yrotation Xrotation
				JOINT Neck
				{
					OFFSET 0.000000 0.000000 0.000000
					CHANNELS 3 Zrotation Yrotation Xrotation
					JOINT Neck1
					{
						OFFSET 0.000000 1.600000 0.340000
						CHANNELS 3 Zrotation Yrotation Xrotation
						JOINT Head
						{
							OFFSET 0.000000 1.667000 -0.240000
							CHANNELS 3 Zrotation Yrotation Xrotation
							End Site
							{
								OFFSET 0.000000 0.000000 0.000000
							}
						}
					}
				}
				JOINT LeftShoulder
				{
					OFFSET 0.000000 0.000000 0.000000
					CHANNELS 3 Zrotation Yrotation Xrotation
					JOINT LeftArm
					{
						OFFSET 2.700000 1.550000 -0.730000
						CHANNELS 3 Zrotation Yrotation Xrotation
						JOINT LeftForeArm
						{
							OFFSET 5.450000 0.000000 0.000000
							CHANNELS 3 Zrotation Yrotation Xrotation
							JOINT LeftHand
							{
								OFFSET 3.450000 0.000000 0.000000
								CHANNELS 3 Zrotation Yrotation Xrotation
								JOINT LeftHandIndex1
								{
									OFFSET 0.750000 0.000000 0.000000
									CHANNELS 3 Zrotation Yrotation Xrotation
									End Site
									{
										OFFSET 0.000000 0.000000 0.000000
									}
								}
							}
						}
					}
				}
				JOINT RightShoulder
				{
					OFFSET 0.000000 0.000000 0.000000
					CHANNELS 3 Zrotation Yrotation Xrotation
					JOINT RightArm
					{
						OFFSET -2.700000 1.550000 -0.730000
						CHANNELS 3 Zrotation Yrotation Xrotation
						JOINT RightForeArm
						{
							OFFSET -5.450000 0.000000 0.000000
							CHANNELS 3 Zrotation Yrotation Xrotation
							JOINT RightHand
							{
								OFFSET -3.450000 0.000000 0.000000
								CHANNELS 3 Zrotation Yrotation Xrotation
								JOINT RightHandIndex1
								{
									OFFSET -0.750000 0.000000 0.000000
									CHANNELS 3 Zrotation Yrotation Xrotation
									End Site
									{
										OFFSET 0.000000 0.000000 0.000000
									}
								}
							}
						}
					}
				}
			}
		}
	}
}
MOTION
Frames: 14
Frame Time: 0.016667
-0.227460 17.445980 -4.839890 -8.989761 5.500967 -14.785634 -15.231002 13.110731 1.431158 1.610376 2.993650 -8.375398 6.472616 7.909853 41.769013 -0.428426 7.228476 1.733193 0.726060 0.681850 0.640230 18.479187 -7.704912 7.030715 -27.772280 22.455427 -49.002668 24.810285 -45.380390 91.823205 -4.554922 -18.585724 -1.225798 0.383830 -0.281500 0.463600 -3.787627 -3.184424 -9.466134 24.525910 -7.892018 33.238548 -13.204567 -2.935759 16.293837 10.940346 8.398026 -22.423951 16.776477 -4.854632 55.021803 -12.438860 0.539610 -38.762090 -37.422965 -37.468197 15.581853 -32.735012 -5.560107 0.219137 0.511882 -5.567592 -1.223254 -3.247718 2.586355 1.260470 -0.307540 0.830380 0.068790 12.765245 39.945543 6.710317 36.131429 51.785798 7.600586 -9.946193 4.571126 -0.208247 2.425267 -0.834171 -0.142500 0.437910 0.033190 -0.287740 
-0.195660 17.424490 -4.819250 -9.585591 5.788457 -15.396362 -15.206035 13.093650 1.359895 2.220561 3.085489 -7.775486 6.560581 7.889558 41.854836 -0.431122 7.245609 1.711359 0.767230 0.746130 0.654410 18.516660 -7.663450 7.062534 -27.479781 22.691145 -49.564492 24.326540 -46.543125 93.545519 -4.694480 -18.904989 -1.273922 0.408090 -0.311160 0.473960 -3.874943 -3.150273 -9.414865 25.553562 -8.935323 34.007796 -14.490065 -3.308001 16.157530 11.314048 7.982480 -21.734146 15.767944 -4.755485 56.352857 -12.303620 -0.298080 -41.229240 -37.292311 -36.950691 15.232709 -31.714145 -6.171127 0.376862 0.057275 -4.928876 -1.247727 -3.235171 2.528865 1.293150 -0.346480 0.884730 0.076990 12.005295 39.251963 6.003902 37.415574 51.660680 7.429419 -10.670318 5.319155 -0.391049 2.373477 -0.828147 -0.116700 0.466260 0.026460 -0.273890 
-0.139600 17.379890 -4.786260 -10.169538 5.897081 -16.627542 -15.225669 13.105772 1.263699 3.639419 3.343457 -6.926805 5.353856 9.021519 43.348079 -0.295519 7.656948 1.561892 0.767380 0.761580 0.613500 18.540861 -7.348713 7.207488 -27.333947 23.868100 -52.666171 21.024264 -49.048138 100.374949 -5.025109 -20.037844 -1.422018 0.386850 -0.316840 0.473400 -3.865032 -3.482667 -9.460708 25.927225 -10.650866 36.723847 -16.369648 -3.858322 14.939307 11.092589 7.530072 -22.108963 13.958694 -4.674045 60.219379 -10.632710 -1.306350 -41.730910 -38.360375 -36.884012 15.139481 -29.127095 -5.649104 0.341125 0.303911 -3.853609 -1.258481 -3.219365 2.477402 1.301180 -0.385150 0.908390 0.087600 13.003615 39.325171 5.535123 36.491078 49.041887 5.201311 -11.980413 7.428904 -0.866430 2.302040 -0.797276 -0.079370 0.476680 0.035930 -0.237040 
-0.086060 17.372040 -4.750210 -11.027050 5.557698 -17.712213 -15.208265 13.032181 1.163305 6.147764 3.575676 -5.352652 2.644302 10.693352 43.198453 -0.114587 7.945013 1.509893 0.752600 0.774540 0.535250 18.598338 -7.047724 7.368383 -27.375245 25.225850 -56.604065 21.253788 -52.908561 103.698347 -5.334359 -21.047043 -1.496713 0.360400 -0.274520 0.422130 -3.953552 -3.671758 -9.515601 26.867651 -12.582206 39.427936 -17.924894 -4.162277 13.112082 10.605363 5.466465 -22.138867 7.818046 -2.828548 64.315241 -7.129070 -2.691970 -41.014340 -39.098031 -36.262042 14.454143 -27.828502 -5.795864 -0.050965 1.754725 -3.524519 -1.212063 -3.191217 2.433566 1.271110 -0.427210 0.901970 0.140970 14.645786 39.650051 5.569978 33.891684 43.981814 2.139891 -11.662013 11.569930 -1.224472 2.222586 -0.707472 -0.055140 0.527260 0.014950 -0.158320 
-0.066200 17.400600 -4.723630 -10.728792 5.700045 -18.608739 -15.247223 12.992757 1.205567 7.691336 3.515246 -3.559782 -0.392928 12.090529 41.980540 0.048738 8.113666 1.500668 0.744700 0.785720 0.460190 18.581461 -6.759703 7.452239 -27.193961 26.066211 -59.886804 23.278921 -55.783656 103.976513 -5.506070 -21.590245 -1.513809 0.339040 -0.220450 0.385380 -3.870435 -4.036161 -9.632478 24.809951 -12.877914 42.327455 -17.302587 -4.099471 11.806548 9.812196 3.331450 -23.067985 1.257698 -0.003459 67.864996 -3.149070 -3.422490 -38.581700 -38.930895 -36.307577 13.774137 -27.446405 -6.746741 -0.873707 3.192339 -4.862696 -1.230345 -3.158878 2.470882 1.226480 -0.445470 0.879090 0.196260 16.363112 40.850546 6.452985 29.432663 38.796174 -0.099595 -10.507093 12.522548 -0.994171 2.235271 -0.644323 -0.028860 0.549780 -0.007370 -0.086010 
-0.026990 17.444520 -4.703670 -10.838071 8.637687 -18.455878 -15.219858 12.787318 1.274532 8.248229 2.166151 -3.453845 -2.174929 12.242409 41.411917 0.089032 8.190279 1.501118 0.677480 0.710350 0.347180 18.630609 -6.666337 7.487981 -27.076660 23.724621 -62.053922 27.818469 -57.954466 99.648683 -5.406926 -21.296495 -1.450602 0.302430 -0.122380 0.360850 -3.986005 -4.007094 -9.682332 23.552740 -14.146823 41.975617 -16.761390 -4.669447 11.927641 9.007645 1.192064 -23.392636 -5.077803 2.983524 67.911831 0.560100 -4.039940 -35.070020 -37.174733 -36.453407 13.179217 -27.627592 -8.846677 -1.907546 4.555783 -7.398864 -1.425329 -3.188776 2.545416 1.169050 -0.411760 0.789940 0.208740 16.726198 41.138904 7.434088 28.029611 34.353478 -1.810537 -11.560617 12.264819 -1.214873 2.225349 -0.687647 -0.042930 0.555700 0.040010 -0.042640 
-0.003690 17.528750 -4.632280 -11.283194 11.908698 -18.914869 -15.216908 12.789096 1.375786 9.577581 1.184221 -0.928127 -4.031277 11.710578 37.700366 0.088357 7.863845 1.666490 0.625440 0.652940 0.272840 18.607628 -6.769184 7.298267 -23.245080 22.354585 -61.399863 30.650565 -56.753403 94.886248 -5.219429 -20.615764 -1.329091 0.258170 -0.042270 0.357680 -3.992606 -4.059619 -9.647818 22.045887 -14.820468 41.583871 -15.310344 -4.923148 12.167482 8.269906 -0.216965 -23.598335 -9.350113 4.584398 67.262994 2.549310 -4.341600 -32.177200 -35.962554 -36.294517 12.697572 -27.962851 -11.459491 -3.095100 5.896107 -10.406290 -1.756529 -3.198285 2.622080 1.112630 -0.375180 0.735750 0.231810 17.522090 40.816655 8.999363 27.312608 28.337513 -3.247279 -11.475085 12.379326 -1.184578 2.213336 -0.722373 -0.038090 0.555680 0.059350 -0.000630 
-0.007590 17.629930 -4.524630 -11.439647 15.703640 -19.056176 -15.205948 12.814324 1.457700 10.112724 0.298627 0.982185 -4.450626 10.724067 34.647972 0.041938 7.517760 1.837834 0.548200 0.562360 0.180470 18.591310 -7.006460 7.040421 -18.003660 21.201553 -60.503825 27.501892 -52.755357 94.521140 -5.036141 -20.288104 -1.297135 0.221790 0.056100 0.332420 -4.049661 -3.946334 -9.590521 19.825879 -14.744905 40.318716 -13.524271 -5.348757 12.494757 7.032215 -1.290350 -23.147523 -12.117189 5.272665 65.843008 5.361650 -4.731170 -28.989850 -34.810276 -36.002006 12.135239 -28.395309 -14.244745 -4.213388 6.805942 -13.530725 -2.212107 -3.218493 2.676595 1.063100 -0.331030 0.650090 0.242270 19.371182 39.695559 10.488847 28.464918 22.928044 -3.782824 -11.484813 11.198314 -1.072191 2.229786 -0.770751 -0.074800 0.565450 0.098880 0.025540 
0.008810 17.762390 -4.412940 -11.118065 19.279856 -19.133063 -15.217909 12.944902 1.582810 9.813904 -0.117105 3.546792 -4.032708 9.387445 30.389193 -0.142411 7.133965 2.055118 0.351100 0.279900 0.049510 18.551318 -7.306435 6.712430 -12.547327 19.288689 -58.404136 23.664566 -46.043992 91.848392 -4.570579 -19.166365 -1.139990 0.131910 0.233750 0.266400 -4.064197 -3.949441 -9.485558 17.372047 -14.413958 39.611220 -11.692521 -5.879829 11.952371 5.707587 -2.641550 -22.558339 -15.648608 6.021183 64.223653 7.610900 -5.722200 -25.856330 -34.636909 -35.223738 11.532124 -28.670791 -17.286956 -5.547003 7.785632 -17.405898 -2.971150 -3.308576 2.578721 1.079430 -0.253540 0.485420 0.191620 22.369988 38.289217 12.102319 29.170488 17.186959 -4.321568 -11.039518 10.139836 -0.778285 2.186442 -0.694051 -0.240130 0.665680 0.254820 -0.007230 
-0.008660 17.909740 -4.266570 -10.485685 21.122079 -18.568776 -15.254316 13.071699 1.766740 10.585639 0.015931 6.049279 -4.874352 8.891094 25.303730 -0.088278 6.782399 2.229948 0.284800 0.206070 -0.085520 18.498620 -7.555219 6.369077 -6.733423 18.402688 -56.146475 17.850055 -37.737477 89.561503 -4.054556 -17.675466 -0.896737 0.082410 0.340170 0.267080 -3.975106 -4.071995 -9.385404 14.371914 -12.694454 38.588845 -8.480420 -5.974609 10.941724 3.767774 -4.994170 -21.757789 -21.622112 8.171488 60.960377 12.148600 -6.812900 -22.513260 -33.646554 -33.970111 10.180987 -30.167159 -19.156111 -6.097475 6.722544 -22.077436 -3.320913 -3.278077 2.721560 0.989230 -0.216520 0.393560 0.227020 26.242211 36.652540 13.938114 28.914323 11.294112 -4.300001 -9.462221 8.950787 -0.389566 2.236498 -0.747436 -0.225120 0.625490 0.284420 0.063270 
-0.011620 17.979450 -4.095050 -9.879574 22.961235 -16.391180 -15.311281 13.181560 1.977422 10.901231 -0.126027 6.983053 -5.774215 8.449310 20.703124 -0.066063 6.531424 2.393634 0.152860 0.060090 -0.221880 18.425652 -7.719607 6.070931 -1.792995 16.847335 -54.611348 15.115854 -31.174300 83.548290 -3.432608 -15.893906 -0.536846 0.017200 0.480250 0.268430 -3.824345 -4.304076 -9.349224 11.118847 -11.135550 34.236927 -6.047868 -6.352694 11.564059 2.565219 -5.945749 -20.487854 -22.691844 7.840006 56.288616 10.584990 -7.080270 -16.495600 -32.297728 -32.667765 9.751399 -31.831451 -20.565010 -6.965439 6.896110 -27.654361 -4.081667 -3.347314 2.831210 0.841350 -0.086330 0.242870 0.239260 27.743694 34.895761 14.706507 30.087956 7.646540 -3.747382 -8.046716 8.233102 -0.242512 2.242990 -0.833014 -0.249400 0.587880 0.340320 0.103380 
0.021170 18.056360 -3.932350 -9.966337 25.021613 -14.881382 -15.341501 13.291983 2.215241 11.229687 -0.399708 8.083876 -6.438313 8.003581 16.381113 -0.073329 6.404014 2.523462 0.065990 -0.044440 -0.295520 18.370060 -7.988113 5.592709 2.914641 14.209577 -51.985439 11.648622 -25.094956 76.774325 -2.820773 -13.876962 -0.071012 -0.018720 0.600980 0.267890 -3.757824 -4.435047 -9.203345 9.198037 -10.940937 29.925321 -5.598406 -7.193317 12.773233 2.000080 -6.107377 -19.185183 -22.299002 7.497865 53.028013 9.045440 -6.492550 -12.991210 -29.955278 -31.382613 9.744910 -34.466649 -22.438053 -7.825198 10.848603 -32.756777 -6.217576 -3.430931 2.820507 0.775520 0.013510 0.152100 0.266450 26.612115 32.832773 14.797288 33.717843 4.980497 -3.066598 -5.781194 7.638366 -0.027706 2.220151 -0.852070 -0.302180 0.612060 0.373380 0.117880 
0.063010 18.103050 -3.765220 -8.648362 26.135514 -12.482568 -15.412121 13.392305 2.502439 10.378661 -0.391217 9.366270 -6.870111 7.552613 12.225642 0.001461 6.299068 2.623249 -0.081680 -0.208410 -0.426230 18.281892 -8.195135 5.191059 5.974115 12.076020 -49.828621 8.882440 -19.527193 68.630595 -2.127846 -11.703581 0.478096 -0.105660 0.727650 0.284310 -3.553254 -4.607661 -9.115429 5.840149 -9.890744 25.229349 -5.388226 -7.073393 14.052883 1.441801 -5.442409 -18.744756 -20.136060 6.571244 50.459073 7.986130 -6.414210 -6.742110 -27.067978 -30.849901 10.433954 -36.980393 -22.998137 -9.248238 18.081176 -39.861756 -10.454709 -3.557070 2.834985 0.644470 0.138820 0.024560 0.262100 24.821925 31.578253 15.173436 38.963323 2.163130 -3.169685 -5.426722 7.596088 -0.034117 2.225742 -0.937213 -0.318500 0.559140 0.438750 0.150900 
0.102850 18.141080 -3.586450 -7.376893 28.388884 -11.299758 -15.551529 13.631021 2.888453 10.614599 -0.865730 10.973644 -8.337832 7.526721 8.933915 0.055098 6.544196 2.614557 -0.175570 -0.325530 -0.499230 18.099779 -8.421090 4.582959 8.797798 9.101575 -46.094677 5.595102 -14.506809 59.262367 -1.465737 -9.303603 1.181084 -0.146370 0.845380 0.274120 -3.088641 -5.088649 -8.916190 1.534215 -9.367199 21.848857 -4.634794 -7.256935 15.430955 0.839710 -5.042545 -18.323662 -19.070594 5.788272 48.024080 7.218020 -6.428640 -4.197710 -23.642028 -30.159951 10.703714 -39.537588 -25.047547 -9.031882 25.165330 -43.545838 -14.686963 -3.687137 2.701261 0.606860 0.226740 -0.061850 0.273770 22.656006 30.336849 15.185523 43.737434 0.433591 -2.668258 -1.919057 4.588124 0.389607 2.247110 -0.897845 -0.384100 0.601070 0.487500 0.156690 
